<?xml version="1.0" encoding="UTF-8" standalone="no"?>
<!-- Uploaded to: SVG Repo, www.svgrepo.com, Generator: SVG Repo Mixer Tools -->

<svg
   width="800"
   height="800"
   viewBox="0 0 24 24"
   fill="none"
   version="1.1"
   id="svg1"
   sodipodi:docname="facebook-svgrepo-com.svg"
   inkscape:version="1.3.2 (091e20e, 2023-11-25)"
   inkscape:export-filename="facebook-svgrepo-com.svg"
   inkscape:export-xdpi="96"
   inkscape:export-ydpi="96"
   xmlns:inkscape="http://www.inkscape.org/namespaces/inkscape"
   xmlns:sodipodi="http://sodipodi.sourceforge.net/DTD/sodipodi-0.dtd"
   xmlns="http://www.w3.org/2000/svg"
   xmlns:svg="http://www.w3.org/2000/svg">
  <defs
     id="defs1" />
  <sodipodi:namedview
     id="namedview1"
     pagecolor="#ffffff"
     bordercolor="#000000"
     borderopacity="0.25"
     inkscape:showpageshadow="2"
     inkscape:pageopacity="0.0"
     inkscape:pagecheckerboard="0"
     inkscape:deskcolor="#d1d1d1"
     inkscape:zoom="0.295"
     inkscape:cx="366.10169"
     inkscape:cy="366.10169"
     inkscape:window-width="1312"
     inkscape:window-height="449"
     inkscape:window-x="0"
     inkscape:window-y="25"
     inkscape:window-maximized="0"
     inkscape:current-layer="svg1" />
  <path
     fill-rule="evenodd"
     clip-rule="evenodd"
     d="M 20.727273,0 C 22.5348,0 24,1.4652545 24,3.2727273 V 20.727273 C 24,22.5348 22.5348,24 20.727273,24 H 3.2727273 C 1.4652545,24 0,22.5348 0,20.727273 V 3.2727273 C 0,1.4652545 1.4652545,0 3.2727273,0 Z m 0,2.1818182 c 0.602509,0 1.090909,0.4884218 1.090909,1.0909091 V 20.727273 c 0,0.602509 -0.4884,1.090909 -1.090909,1.090909 h -5.454546 v -7.636473 h 2.264946 c 0.469527,0 0.886363,-0.300436 1.034945,-0.745964 l 0.483273,-1.449818 c 0.176618,-0.529854 -0.217746,-1.076945 -0.776182,-1.076945 H 15.272727 V 8.7271855 c 0,-0.5454546 0.545455,-1.0909091 1.090909,-1.0909091 h 2.181819 c 0.602509,0 1.090909,-0.4884219 1.090909,-1.0909091 V 5.7970145 c 0,-0.3523854 -0.225055,-0.6683236 -0.565855,-0.7582472 C 17.640545,4.6614 16.363636,4.6614 16.363636,4.6614 13.636364,4.6614 12,6.5453673 12,8.1817309 V 10.908982 H 9.818182 c -0.602487,0 -1.0909093,0.4884 -1.0909093,1.090909 V 13.0908 c 0,0.602509 0.4884113,1.090909 1.0909093,1.090909 H 12 v 7.636473 H 3.2727273 c -0.6024873,0 -1.0909091,-0.4884 -1.0909091,-1.090909 V 3.2727273 c 0,-0.6024873 0.4884218,-1.0909091 1.0909091,-1.0909091 z"
     fill="#0f0f0f"
     id="path1"
     style="stroke-width:1.09091" />
</svg>
