<?xml version="1.0" encoding="UTF-8" standalone="no"?>
<!-- Uploaded to: SVG Repo, www.svgrepo.com, Generator: SVG Repo Mixer Tools -->

<svg
   fill="#000000"
   width="800"
   height="800"
   viewBox="-2 -2 24 24"
   preserveAspectRatio="xMinYMin"
   class="jam jam-github-square"
   version="1.1"
   id="svg2"
   sodipodi:docname="github-square-svgrepo-com.svg"
   inkscape:version="1.3.2 (091e20e, 2023-11-25)"
   xmlns:inkscape="http://www.inkscape.org/namespaces/inkscape"
   xmlns:sodipodi="http://sodipodi.sourceforge.net/DTD/sodipodi-0.dtd"
   xmlns="http://www.w3.org/2000/svg"
   xmlns:svg="http://www.w3.org/2000/svg">
  <defs
     id="defs2" />
  <sodipodi:namedview
     id="namedview2"
     pagecolor="#ffffff"
     bordercolor="#000000"
     borderopacity="0.25"
     inkscape:showpageshadow="2"
     inkscape:pageopacity="0.0"
     inkscape:pagecheckerboard="0"
     inkscape:deskcolor="#d1d1d1"
     inkscape:zoom="0.295"
     inkscape:cx="330.50847"
     inkscape:cy="332.20339"
     inkscape:window-width="1312"
     inkscape:window-height="449"
     inkscape:window-x="0"
     inkscape:window-y="25"
     inkscape:window-maximized="0"
     inkscape:current-layer="svg2" />
  <path
     d="m 7.8160002,16.0096 c 0.144,0 0.2532,-0.0048 0.3252,-0.0144 a 0.38040001,0.38040001 0 0 0 0.216,-0.1284 c 0.072,-0.0756 0.108,-0.1848 0.108,-0.3288 l -0.0048,-0.6684 c -0.0036,-0.426 -0.0048,-0.7644 -0.0048,-1.0128 l -0.2256,0.0396 a 2.8920001,2.8920001 0 0 1 -0.546,0.0336 4.1976001,4.1976001 0 0 1 -0.684,-0.0684 1.5312,1.5312 0 0 1 -0.6576,-0.2952 1.248,1.248 0 0 1 -0.432,-0.6036 l -0.0984,-0.2268 a 2.4552,2.4552 0 0 0 -0.3096001,-0.5004 1.1868,1.1868 0 0 0 -0.4284,-0.3744 l -0.0684,-0.048 a 0.72240001,0.72240001 0 0 1 -0.1272,-0.12 0.54600001,0.54600001 0 0 1 -0.0888,-0.1368 c -0.0192,-0.0456 -0.0036,-0.084 0.048,-0.1128 a 0.63960001,0.63960001 0 0 1 0.2856,-0.0444 l 0.1968,0.03 c 0.132,0.0252 0.294,0.1044 0.4872001,0.2352 0.192,0.132 0.3516,0.3012 0.4764,0.5112 0.1512,0.2688 0.3324,0.474 0.546,0.6144 a 1.1568,1.1568 0 0 0 0.6432,0.2112 c 0.216,0 0.4032,-0.0156 0.5604,-0.048 a 1.956,1.956 0 0 0 0.4428,-0.1488 c 0.0588,-0.438 0.2184,-0.7764 0.48,-1.0116 a 6.7320001,6.7320001 0 0 1 -1.0068,-0.1776 4.0152001,4.0152001 0 0 1 -0.924,-0.384 2.6448001,2.6448001 0 0 1 -0.792,-0.6576 c -0.2088,-0.2628 -0.3804,-0.6059998 -0.516,-1.0319998 a 4.9080001,4.9080001 0 0 1 -0.2004001,-1.4748 c 0,-0.792 0.2592001,-1.4676 0.7764001,-2.0244 -0.2424,-0.5964001 -0.2196,-1.2648001 0.0684,-2.0052001 0.1908,-0.06 0.4728,-0.0156 0.846,0.132 0.3732,0.1476 0.648,0.2736 0.8208,0.3792 0.174,0.1044 0.312,0.192 0.4176,0.264 a 6.9768001,6.9768001 0 0 1 1.8875998,-0.2544 c 0.648,0 1.278,0.084 1.8876,0.2556 l 0.372,-0.2364 c 0.2568,-0.156 0.558,-0.3012 0.9048,-0.432 0.348,-0.132 0.6132,-0.168 0.7968,-0.108 0.2952,0.7404 0.3216,1.4088 0.078,2.0040001 0.5184,0.558 0.7776,1.2324 0.7776,2.0256 0,0.5568 -0.0672,1.05 -0.2016,1.4796 -0.1344,0.4296 -0.3084,0.7727998 -0.5208,1.0319998 a 2.7480001,2.7480001 0 0 1 -0.7968,0.654 4.0104001,4.0104001 0 0 1 -0.924,0.384 6.7260001,6.7260001 0 0 1 -1.008,0.1764 c 0.3408,0.294 0.5112,0.7596 0.5112,1.3956 v 2.3484 c 0,0.1116 0.0168,0.2016 0.0492,0.2712 a 0.27120001,0.27120001 0 0 0 0.1572,0.1428 c 0.072,0.0252 0.1368,0.042 0.192,0.048 0.0564,0.0072 0.1356,0.0108 0.24,0.0108 H 10.4896 7.8172002 Z"
     id="path1"
     style="stroke-width:1.20001" />
  <path
     d="M 2.8000001,0.40000005 A 2.4,2.4 0 0 0 0.40000005,2.8000001 V 17.2 A 2.4,2.4 0 0 0 2.8000001,19.6 H 17.2 a 2.4,2.4 0 0 0 2.4,-2.4 V 2.8000001 A 2.4,2.4 0 0 0 17.2,0.40000005 Z M 2.8000001,-2 H 17.2 A 4.8000001,4.8000001 0 0 1 22,2.8000001 V 17.2 A 4.8000001,4.8000001 0 0 1 17.2,22 H 2.8000001 A 4.8000001,4.8000001 0 0 1 -2,17.2 V 2.8000001 A 4.8000001,4.8000001 0 0 1 2.8000001,-2 Z"
     id="path2"
     style="stroke-width:1.20001" />
</svg>
