<?xml version="1.0" encoding="UTF-8" standalone="no"?>
<!-- Uploaded to: SVG Repo, www.svgrepo.com, Generator: SVG Repo Mixer Tools -->

<svg
   fill="#000000"
   width="795.48022"
   height="795.48022"
   viewBox="-2 -2 23.864407 23.864407"
   preserveAspectRatio="xMinYMin"
   class="jam jam-gitlab-square"
   version="1.1"
   id="svg2"
   sodipodi:docname="gitlab-square-svgrepo-com.svg"
   inkscape:version="1.3.2 (091e20e, 2023-11-25)"
   xmlns:inkscape="http://www.inkscape.org/namespaces/inkscape"
   xmlns:sodipodi="http://sodipodi.sourceforge.net/DTD/sodipodi-0.dtd"
   xmlns="http://www.w3.org/2000/svg"
   xmlns:svg="http://www.w3.org/2000/svg">
  <defs
     id="defs2" />
  <sodipodi:namedview
     id="namedview2"
     pagecolor="#ffffff"
     bordercolor="#000000"
     borderopacity="0.25"
     inkscape:showpageshadow="2"
     inkscape:pageopacity="0.0"
     inkscape:pagecheckerboard="0"
     inkscape:deskcolor="#d1d1d1"
     inkscape:zoom="0.295"
     inkscape:cx="391.52542"
     inkscape:cy="394.91525"
     inkscape:window-width="1312"
     inkscape:window-height="688"
     inkscape:window-x="0"
     inkscape:window-y="25"
     inkscape:window-maximized="0"
     inkscape:current-layer="svg2" />
  <path
     d="M 9.9322035,15.440109 7.7354848,8.6793221 h 4.3934372 z m 0,0 L 4.655783,8.6793221 H 7.7342915 Z M 4.655783,8.6793221 9.9322035,15.440109 4.1534373,11.24236 A 0.45461695,0.45461695 0 0 1 3.9887729,10.732855 L 4.6569763,8.6781288 Z m 0,0 1.3244747,-4.0724611 a 0.22671186,0.22671186 0 0 1 0.4319458,0 L 7.7354848,8.6793221 H 4.6569763 Z M 9.9322035,15.440109 12.128922,8.6781288 h 3.078509 z m 5.2764205,-6.7619802 0.668203,2.0547262 a 0.45461695,0.45461695 0 0 1 -0.16705,0.509505 l -5.7775735,4.197749 z m 0,0 h -3.078508 l 1.322088,-4.0724609 a 0.22671186,0.22671186 0 0 1 0.433137,0 z"
     id="path1"
     style="stroke-width:1.19323" />
  <path
     d="M 2.8000003,0.40000013 A 2.4,2.4 0 0 0 0.4000001,2.8000003 V 17.2 a 2.4,2.4 0 0 0 2.4000002,2.4 H 17.2 a 2.4,2.4 0 0 0 2.4,-2.4 V 2.8000003 A 2.4,2.4 0 0 0 17.2,0.40000013 Z M 2.8000003,-2 H 17.2 A 4.8000003,4.8000003 0 0 1 22,2.8000003 V 17.2 A 4.8000003,4.8000003 0 0 1 17.200001,22 H 2.8000003 A 4.8000003,4.8000003 0 0 1 -2,17.2 V 2.8000003 A 4.8000003,4.8000003 0 0 1 2.8000003,-2 Z"
     id="path2"
     style="stroke-width:1.20001" />
</svg>
