<?xml version="1.0" encoding="UTF-8" standalone="no"?>
<!-- Uploaded to: SVG Repo, www.svgrepo.com, Generator: SVG Repo Mixer Tools -->

<svg
   width="800"
   height="800"
   viewBox="0 0 24 24"
   fill="none"
   version="1.1"
   id="svg4"
   sodipodi:docname="linkedin-svgrepo-com.svg"
   inkscape:version="1.3.2 (091e20e, 2023-11-25)"
   xmlns:inkscape="http://www.inkscape.org/namespaces/inkscape"
   xmlns:sodipodi="http://sodipodi.sourceforge.net/DTD/sodipodi-0.dtd"
   xmlns="http://www.w3.org/2000/svg"
   xmlns:svg="http://www.w3.org/2000/svg">
  <defs
     id="defs4" />
  <sodipodi:namedview
     id="namedview4"
     pagecolor="#ffffff"
     bordercolor="#000000"
     borderopacity="0.25"
     inkscape:showpageshadow="2"
     inkscape:pageopacity="0.0"
     inkscape:pagecheckerboard="0"
     inkscape:deskcolor="#d1d1d1"
     inkscape:zoom="0.295"
     inkscape:cx="101.69492"
     inkscape:cy="481.35593"
     inkscape:window-width="1312"
     inkscape:window-height="449"
     inkscape:window-x="0"
     inkscape:window-y="25"
     inkscape:window-maximized="0"
     inkscape:current-layer="svg4" />
  <path
     d="M 6,7.6363636 C 6.9037418,7.6363636 7.6363636,6.9037418 7.6363636,6 7.6363636,5.0962582 6.9037418,4.3636364 6,4.3636364 5.0962582,4.3636364 4.3636364,5.0962582 4.3636364,6 4.3636364,6.9037418 5.0962582,7.6363636 6,7.6363636 Z"
     fill="#0f0f0f"
     id="path1"
     style="stroke-width:1.09091" />
  <path
     d="m 4.3636364,9.818182 c 0,-0.602487 0.4884218,-1.0909093 1.0909091,-1.0909093 h 1.090909 c 0.6024873,0 1.0909091,0.4884113 1.0909091,1.0909093 v 8.727273 c 0,0.602509 -0.4884218,1.090909 -1.0909091,1.090909 h -1.090909 c -0.6024873,0 -1.0909091,-0.4884 -1.0909091,-1.090909 z"
     fill="#0f0f0f"
     id="path2"
     style="stroke-width:1.09091" />
  <path
     d="M 10.909091,19.636364 H 12 c 0.602509,0 1.090909,-0.4884 1.090909,-1.090909 v -4.909091 c 0,-1.636364 3.272727,-2.727273 3.272727,-0.545455 v 5.454982 c 0,0.602509 0.4884,1.090473 1.090909,1.090473 h 1.09091 c 0.602509,0 1.090909,-0.4884 1.090909,-1.090909 V 12 c 0,-2.181818 -1.636364,-3.2727273 -3.818182,-3.2727273 -2.181818,0 -2.727273,1.6363633 -2.727273,1.6363633 V 9.818182 c 0,-0.602498 -0.4884,-1.0909093 -1.090909,-1.0909093 h -1.090909 c -0.602509,0 -1.090909,0.4884223 -1.090909,1.0909093 v 8.727273 c 0,0.602509 0.4884,1.090909 1.090909,1.090909 z"
     fill="#0f0f0f"
     id="path3"
     style="stroke-width:1.09091" />
  <path
     fill-rule="evenodd"
     clip-rule="evenodd"
     d="M 20.727273,0 C 22.5348,0 24,1.4652545 24,3.2727273 V 20.727273 C 24,22.5348 22.5348,24 20.727273,24 H 3.2727273 C 1.4652545,24 0,22.5348 0,20.727273 V 3.2727273 C 0,1.4652545 1.4652545,0 3.2727273,0 Z m 0,2.1818182 c 0.602509,0 1.090909,0.4884218 1.090909,1.0909091 V 20.727273 c 0,0.602509 -0.4884,1.090909 -1.090909,1.090909 H 3.2727273 c -0.6024873,0 -1.0909091,-0.4884 -1.0909091,-1.090909 V 3.2727273 c 0,-0.6024873 0.4884218,-1.0909091 1.0909091,-1.0909091 z"
     fill="#0f0f0f"
     id="path4"
     style="stroke-width:1.09091" />
</svg>
