<?xml version="1.0" encoding="UTF-8" standalone="no"?>
<!-- Uploaded to: SVG Repo, www.svgrepo.com, Generator: SVG Repo Mixer Tools -->

<svg
   height="800"
   width="538"
   version="1.1"
   id="_x32_"
   viewBox="0 0 344.32 512"
   xml:space="preserve"
   sodipodi:docname="map-pin-svgrepo-com.svg"
   inkscape:version="1.3.2 (091e20e, 2023-11-25)"
   xmlns:inkscape="http://www.inkscape.org/namespaces/inkscape"
   xmlns:sodipodi="http://sodipodi.sourceforge.net/DTD/sodipodi-0.dtd"
   xmlns="http://www.w3.org/2000/svg"
   xmlns:svg="http://www.w3.org/2000/svg"><defs
   id="defs1" /><sodipodi:namedview
   id="namedview1"
   pagecolor="#ffffff"
   bordercolor="#000000"
   borderopacity="0.25"
   inkscape:showpageshadow="2"
   inkscape:pageopacity="0.0"
   inkscape:pagecheckerboard="0"
   inkscape:deskcolor="#d1d1d1"
   inkscape:zoom="0.295"
   inkscape:cx="230.50847"
   inkscape:cy="413.55932"
   inkscape:window-width="1312"
   inkscape:window-height="449"
   inkscape:window-x="28"
   inkscape:window-y="66"
   inkscape:window-maximized="0"
   inkscape:current-layer="_x32_" />
<style
   type="text/css"
   id="style1">
	.st0{fill:#000000;}
</style>
<g
   id="g1"
   transform="matrix(0.99886282,0,0,1,-83.548882,0)">
	<path
   class="st0"
   d="M 256,0 C 160.798,0 83.644,77.155 83.644,172.356 c 0,97.162 48.158,117.862 101.386,182.495 C 248.696,432.161 256,512 256,512 c 0,0 7.304,-79.839 70.97,-157.148 C 380.198,290.218 428.356,269.518 428.356,172.357 428.356,77.155 351.202,0 256,0 Z m 0,231.921 c -32.897,0 -59.564,-26.668 -59.564,-59.564 0,-32.896 26.668,-59.564 59.564,-59.564 32.896,0 59.564,26.668 59.564,59.564 0,32.896 -26.668,59.564 -59.564,59.564 z"
   id="path1" />
</g>
</svg>
