<?xml version="1.0" encoding="UTF-8" standalone="no"?>
<!-- Uploaded to: SVG Repo, www.svgrepo.com, Generator: SVG Repo Mixer Tools -->

<svg
   width="650"
   height="616"
   viewBox="0 0 19.5 18.48"
   fill="none"
   version="1.1"
   id="svg1"
   sodipodi:docname="phone-svgrepo-com.svg"
   inkscape:version="1.3.2 (091e20e, 2023-11-25)"
   xmlns:inkscape="http://www.inkscape.org/namespaces/inkscape"
   xmlns:sodipodi="http://sodipodi.sourceforge.net/DTD/sodipodi-0.dtd"
   xmlns="http://www.w3.org/2000/svg"
   xmlns:svg="http://www.w3.org/2000/svg">
  <defs
     id="defs1" />
  <sodipodi:namedview
     id="namedview1"
     pagecolor="#ffffff"
     bordercolor="#000000"
     borderopacity="0.25"
     inkscape:showpageshadow="2"
     inkscape:pageopacity="0.0"
     inkscape:pagecheckerboard="0"
     inkscape:deskcolor="#d1d1d1"
     inkscape:zoom="0.26189948"
     inkscape:cx="397.09892"
     inkscape:cy="427.645"
     inkscape:window-width="1312"
     inkscape:window-height="449"
     inkscape:window-x="0"
     inkscape:window-y="25"
     inkscape:window-maximized="0"
     inkscape:current-layer="svg1" />
  <path
     d="m 12.849825,12.096183 -0.528762,-0.531215 v 0 z m 0.455467,-0.452302 0.528762,0.531215 v 0 z m 2.416427,-0.316451 -0.358175,0.658175 z m 1.910362,1.037457 -0.358174,0.658176 z m 0.538362,3.25142 0.528762,0.531215 z m -1.420498,1.410846 -0.528762,-0.531215 z m -1.324705,0.668964 0.06959,0.745978 v 0 z m -9.8602306,-4.233838 0.528782,-0.531315 z m -4.81212401,-8.9711112 -0.748737,0.0425 v 0 z m 6.47414401,1.4501733 0.528762,0.531255 v 0 z m 0.156689,-2.6509813 0.600357,-0.448976 z m -1.260849,-1.682547 -0.600357,0.448975 v 0 z m -3.111587,-0.283938 0.528782,0.531255 v 0 z m -1.569487,1.558974 -0.52878201,-0.531255 v 0 z m 7.37072,7.3535822 0.528762,-0.5312149 z m 4.5660716,2.391067 0.455467,-0.452402 -1.057624,-1.06253 -0.455367,0.452402 z m 1.984957,-0.641893 1.910363,1.037458 0.716349,-1.316351 -1.910363,-1.037457 z m 2.278137,3.099387 -1.420498,1.410946 1.057524,1.06253 1.420498,-1.410946 z m -2.286036,1.865246 c -1.449796,0.134952 -5.200726,0.01468 -9.2618536,-4.019274 l -1.057564,1.06253 c 4.431741,4.402053 8.6497376,4.617016 10.4586076,4.448601 z M 6.0937914,12.930964 C 2.2226894,9.0857981 1.5814454,5.8517091 1.5016214,4.4486538 l -1.49747301,0.08502 c 0.100453,1.7658853 0.894466,5.3499493 5.03207901,9.4598232 z m 1.375221,-6.1734919 0.286779,-0.284876 -1.057524,-1.0625 -0.286789,0.284866 z m 0.515063,-3.9160883 -1.26086,-1.682547 -1.200703,0.897951 1.260849,1.682557 z M 2.4825004,0.79261978 0.91301339,2.3515938 l 1.05756401,1.06251 1.569487,-1.558974 z m 4.45775,5.43359732 c -0.528772,-0.531255 -0.529492,-0.530546 -0.530212,-0.529827 -2.4e-4,2.4e-4 -9.6e-4,9.69e-4 -0.0015,0.0015 -9.8e-4,9.89e-4 -0.002,0.002 -0.003,0.003 -0.002,0.0021 -0.0041,0.0042 -0.0063,0.0065 -0.0043,0.0045 -0.0089,0.0093 -0.01373,0.01457 -0.0097,0.01046 -0.02024,0.02242 -0.03158,0.03594 -0.02267,0.02702 -0.04836,0.06029 -0.07535,0.1001 -0.05413,0.0798 -0.113102,0.185315 -0.163148,0.318008 -0.102123,0.270752 -0.156869,0.627669 -0.08823,1.069633 0.13423,0.864328 0.730098,2.006041 2.256488,3.5221709 l 1.057524,-1.0625299 c -1.428397,-1.418848 -1.768672,-2.282297 -1.831868,-2.689349 -0.0301,-0.193716 0.0011,-0.289061 0.0097,-0.311636 0.0052,-0.01396 0.0077,-0.01539 0.0013,-0.0058 -0.0032,0.0047 -0.0085,0.01197 -0.0168,0.02181 -0.0041,0.0049 -0.009,0.0105 -0.0147,0.01671 -0.0029,0.0031 -0.0059,0.0064 -0.0093,0.0098 -0.0016,0.0017 -0.0033,0.0035 -0.0051,0.0053 -9e-4,8.99e-4 -0.0018,0.0018 -0.0027,0.0027 -4e-4,4.59e-4 -0.0011,0.0012 -0.0014,0.0014 -7e-4,6.99e-4 -0.0014,0.0014 -0.530162,-0.529857 z m 1.343503,4.5415289 c 1.526891,1.51663 2.6751076,2.10688 3.5417456,2.239734 0.442868,0.06783 0.799942,0.01369 1.070823,-0.0871 0.13279,-0.04945 0.238583,-0.107682 0.318577,-0.161223 0.04,-0.02677 0.0734,-0.05224 0.100493,-0.07472 0.0136,-0.01119 0.0256,-0.02168 0.0361,-0.03127 0.0053,-0.0048 0.0102,-0.0093 0.0147,-0.01358 0.0023,-0.0022 0.0044,-0.0043 0.0065,-0.0063 10e-4,-9.99e-4 0.002,-0.002 0.003,-0.003 5e-4,-4.99e-4 0.0013,-0.0012 0.0015,-0.0014 7e-4,-7e-4 0.0014,-0.0014 -0.527362,-0.532714 -0.528762,-0.531215 -0.528062,-0.531914 -0.527362,-0.532613 2e-4,-2e-4 9e-4,-8.99e-4 0.0014,-0.0014 9e-4,-8.99e-4 0.0018,-0.0018 0.0027,-0.0027 0.0019,-0.0017 0.0036,-0.0034 0.0053,-0.0051 0.0035,-0.0033 0.0068,-0.0063 0.0099,-0.0092 0.0062,-0.0056 0.0118,-0.01049 0.0168,-0.01448 0.0098,-0.0082 0.0171,-0.01338 0.0216,-0.01648 0.0093,-0.0062 0.0074,-0.0034 -0.0074,0.0021 -0.0245,0.0091 -0.122591,0.04035 -0.319777,0.01009 -0.41327,-0.06323 -1.283707,-0.402857 -2.7117046,-1.8211949 z M 6.7232154,1.1588368 C 5.7039794,-0.20125522 3.6997434,-0.41646822 2.4825004,0.79261978 l 1.057564,1.06251002 c 0.531642,-0.528088 1.475854,-0.474337 1.982448,0.201658 z m -5.221594,3.289817 c -0.01967,-0.345729 0.13906,-0.706871 0.468956,-1.03455 l -1.05756401,-1.06251 c -0.537281,0.533682 -0.959671,1.28915 -0.908865,2.182077 z M 16.221183,16.495938 c -0.27478,0.273 -0.569359,0.426731 -0.865538,0.4543 l 0.13919,1.491857 c 0.734547,-0.06842 1.336404,-0.439116 1.783872,-0.883627 z M 7.7557914,6.4725961 c 0.98443,-0.977844 1.057624,-2.5245403 0.228284,-3.6312123 l -1.200714,0.897951 c 0.403471,0.538388 0.343476,1.2450593 -0.08509,1.6707613 z m 9.5181156,6.5504669 c 0.817741,0.444111 0.945132,1.488361 0.367774,2.061929 l 1.057524,1.06253 c 1.340204,-1.331234 0.926934,-3.552488 -0.708949,-4.44081 z m -3.439853,-0.847967 c 0.383973,-0.38138 1.002028,-0.475876 1.52949,-0.189491 l 0.716349,-1.31635 c -1.083522,-0.588453 -2.428225,-0.425931 -3.303463,0.443311 z"
     fill="#1c274c"
     id="path1"
     style="stroke-width:0.999414" />
</svg>
